<svg xmlns="http://www.w3.org/2000/svg" xmlns:xlink="http://www.w3.org/1999/xlink" viewBox="0 0 135.47 135.47"><defs><linearGradient id="a"><stop offset=".1" stop-color="#ff0"/><stop offset=".9" stop-color="red"/></linearGradient><linearGradient xlink:href="#a" id="b" x1="76.3" x2="76.3" y1="24.82" y2="112.89" gradientTransform="translate(-1.39 .63) scale(1.0205)" gradientUnits="userSpaceOnUse"/></defs><rect width="129.12" height="129.12" x="3.17" y="-132.29" fill="#51276c" stroke="#fff" stroke-linecap="round" stroke-linejoin="round" stroke-width="6.35" rx="25.57" ry="25.57" transform="scale(1 -1)"/><path fill="url(#b)" d="M28.04 26.35v10.58h34.1V48.1h-34.1v10.58h34.1l-34.1 51.15c1.19 1.18 2.35 1.77 4.12 2.94 1.77 1.18 2.94 2.35 4.7 2.94 10-15.29 20.58-30.57 31.16-45.86l30.58 45.86c1.76-.58 2.94-1.76 4.7-2.94 1.77-1.17 2.94-1.76 4.12-2.94-11.17-17.04-22.93-34.1-34.1-51.15h34.1V48.1h-34.1V36.93h34.1V26.35Z"/></svg>