<svg
  xmlns="http://www.w3.org/2000/svg"
  xml:space="preserve"
  viewBox="0 0 32 32"
>
  <path
    fill="currentColor"
    d="M16 3.9746c-6.6288 0-12 5.3712-12 12 0 6.6264 5.3712 12 12 12 6.6264 0 12-5.3736 12-12 0-6.6288-5.3736-12-12-12zm4.3047 2.8008 4.3887 2.502c.1582.0919.1582.3287 0 .414v.0059l-8.5215 5.037c-.171.0985-.3862.0985-.5508 0L7.1055 9.711c-.1583-.0919-.1583-.3287 0-.414L11.5 6.7773v5.3575l4.4922-2.4825 4.3125 2.4825V6.7754zM6.0352 11.4629a.2324.2324 0 0 1 .123.0312l8.6094 4.8633c.1675.0934.2752.2793.2754.4766l-.1016 9.8984-.0059.004c.0053.1797-.1986.2961-.3574.205l-4.3593-2.5469 4.6386-2.6797-4.3047-2.4941-.0976-5.1328-4.6406 2.6777-.0137-5.0644c-.004-.1349.11-.2351.2344-.2383zm19.9316 0c.1243.0032.2383.1035.2344.2383l-.0137 5.0644-4.6406-2.6777-.0977 5.1328-4.3047 2.4941 4.6387 2.6797-4.3594 2.547c-.1587.091-.3626-.0254-.3574-.2052l-.0059-.0039-.1015-9.8984c.0002-.1973.1078-.3832.2754-.4766l8.6093-4.8633a.2324.2324 0 0 1 .1231-.0312z"
  />
</svg>