<svg
  xmlns="http://www.w3.org/2000/svg"
  xml:space="preserve"
  viewBox="0 0 32 32"
>
  <path
    fill="currentColor"
    d="M16 4C9.3712 4 4 9.3712 4 16c0 6.6264 5.3712 12 12 12 6.6264 0 12-5.3736 12-12 0-6.6288-5.3736-12-12-12zm0 3.0996c5.1093 0 9.2598 4.093 9.2598 9.2031 0 .1565-.006.3124-.0137.4668.1514.1606.3265.3537.4785.5508.1611.209.2959.4129.3457.5977.1186.4444-.1452.9044-.5898 1.0234-.4439.119-.904-.1475-1.0235-.5918-.0484-.1813-.0353-.4197-.002-.6758.0316-.2414.0847-.4911.1348-.705-.002-.0038-.0038-.0064-.0058-.0098-.871-1.7588-3.0444-2.7198-3.4395-2.8828-.5222 2.4583.6539 4.9233 2.791 6.0898.1292.0712.1785.2369.1075.3672-.0716.129-.2374.1783-.3672.1074-1.2095-.6602-2.1348-1.7023-2.6738-2.9238-.012.056-.0221.1121-.0352.168a8.179 8.179 0 0 1-.2422.8379 7.3727 7.3727 0 0 1-.3437.8222 7.5424 7.5424 0 0 1-.2422.4473c.4172.9806 1.1376 1.8117 2.0527 2.3828.1258.0783.1645.2474.086.373a.2726.2726 0 0 1-.3731.086 5.791 5.791 0 0 1-2.1133-2.3203 6.778 6.778 0 0 1-1.7129 1.662 6.3175 6.3175 0 0 0 1.2344 2.2813c.0955.1128.0821.2838-.0313.379a.2734.2734 0 0 1-.3808-.0313.1.1 0 0 0-.002 0c-.5758-.6801-1.0158-1.4744-1.293-2.3399-.8326.4682-1.4984.6262-1.5468.6368a.1.1 0 0 1-.0078 0l-.0332.0058a.1.1 0 0 1-.0117 0h-.0137a.1.1 0 0 1-.004 0 .282.282 0 0 1-.0487-.0058c-.0457-.0101-.711-.1675-1.543-.6348a6.8512 6.8512 0 0 1-1.295 2.3379c-.0956.113-.2673.1264-.3808.0312a.2693.2693 0 0 1-.0332-.3789 6.3221 6.3221 0 0 0 1.2344-2.2812 6.767 6.767 0 0 1-1.7168-1.664 5.7924 5.7924 0 0 1-2.1133 2.3222.2726.2726 0 0 1-.373-.086c-.0786-.1256-.0399-.2947.0859-.373.9165-.572 1.6383-1.4045 2.0547-2.3867-.3698-.6299-.6701-1.3879-.8594-2.2813-.532 1.2111-1.4445 2.247-2.6348 2.9102-.0136.0072-.0287.0147-.0449.0234a.2716.2716 0 0 1-.125.0332.1.1 0 0 0-.002 0h-.0019a.269.269 0 0 1-.2363-.1406.2695.2695 0 0 1-.0313-.1719.278.278 0 0 1 .0469-.1133.1.1 0 0 1 .004-.0058l.0019-.002.002-.0039a.263.263 0 0 1 .039-.039.1.1 0 0 1 .0078-.0078l.0293-.0196a.1.1 0 0 1 .0098-.0039c.0173-.0092.0343-.019.0527-.0293l.0488-.0273.0684-.041.0761-.045c.016-.0099.0318-.0207.0489-.0312l.0332-.0215.0722-.0469a.1.1 0 0 0 .002-.002.9662.9662 0 0 0 .0215-.0136l.0762-.0508a5.4724 5.4724 0 0 0 .125-.0898l.0976-.0742.0469-.0352.0703-.0566.0371-.0313c.0217-.018.0428-.0344.0645-.0527a5.0404 5.0404 0 0 0 .1328-.1172l.0508-.0469c1.137-1.0586 1.8061-2.5652 1.7949-4.1523-.0022-.3721-.049-.7482-.129-1.125-.3957.1632-2.5714 1.1227-3.4413 2.8828-.0018.0036-.0021.0045-.004.0078.0499.214.103.465.1348.707.0336.2564.047.494-.002.6758-.1194.4444-.5795.711-1.0234.5918-.4446-.119-.7103-.579-.5918-1.0234.0499-.1845.185-.389.3457-.5977.1517-.1969.3271-.3882.4786-.5488a9.4505 9.4505 0 0 1-.0137-.4688c0-5.11 4.1524-9.203 9.2617-9.203zm-.2969.5508c-4.6257.1537-8.3351 3.8574-8.416 8.5 1.187-1.7062 3.36-2.5802 3.4902-2.6309 2.128-.8986 3.3612-2.3653 4.0664-3.623.6517-1.1623.8273-2.0677.8594-2.2461zm.5918 0c.0322.1784.2076 1.0838.8594 2.246.705 1.2574 1.9375 2.7225 4.0645 3.6212l.0019.002c.1262.0493 2.3034.9242 3.4902 2.6308-.0808-4.6426-3.7902-8.3462-8.416-8.5zM16 8.5664c-.4252 1.2787-1.4855 3.5014-4 4.9473.3089-.048.6219-.0782.9434-.0782.793 0 1.554.1516 2.2558.4278a.2704.2704 0 0 1 .1485.1406.1.1 0 0 1 .002.004.2873.2873 0 0 1 .0136.0429 6.1926 6.1926 0 0 1 .2519 1.8769c-.0074.3222-.0369.6371-.0918.9453a6.1033 6.1033 0 0 1-.2382.9141.1458.1458 0 0 1-.1817.0938.1438.1438 0 0 1-.0937-.1797 5.7114 5.7114 0 0 0 .164-.877 5.7512 5.7512 0 0 0 .0274-.8906 5.6642 5.6642 0 0 0-.1114-.8809c-.0514-.2501-.1221-.4921-.205-.7285a5.5976 5.5976 0 0 0-1.9414-.3476h-.0137a5.6194 5.6194 0 0 0-.957.084c-.185.0323-.366.0768-.545.1269.084.4799.1148.9601.086 1.4297-.0025.035-.0054.0706-.0078.1055l-.0059.0586a.1.1 0 0 0 0 .0019l-.0059.0742-.0078.0664a.1.1 0 0 0 0 .002 6.1797 6.1797 0 0 1-.0215.1738l-.002.004c-.0012.011-.0018.019-.0019.0194a.1.1 0 0 1-.002.004c-.0065.044-.012.0876-.0194.1328a.1.1 0 0 0 0 .002 6.8599 6.8599 0 0 1-.0704.3495v.0059c.2314 2.4051 1.2927 3.8619 2.3477 4.7383 1.035.8598 2.057 1.1537 2.2832 1.211.226-.0573 1.2463-.3512 2.2813-1.211 1.0548-.8764 2.1161-2.3335 2.3476-4.7383v-.0059c-.179-.7777-.206-1.5994-.0625-2.4238-.4833-.1353-.9884-.211-1.5117-.211a5.6019 5.6019 0 0 0-2.0332.381c-.0503.0338-.1083.0937-.1504.16-.0433.0684-.0684.1415-.0684.1876 0 .0647-.0208.127-.0644.164-.0437.0372-.0933.0391-.1192.0391-.0482 0-.0905-.0244-.1171-.0508-.0267-.0264-.0417-.0559-.0547-.086a.4671.4671 0 0 1-.0391-.1855c0-.146.0137-.278.0664-.3984.0528-.1205.147-.2224.2852-.3047a.1.1 0 0 0 0-.002.2758.2758 0 0 1 .0586-.0253 6.142 6.142 0 0 1 2.2363-.42c.321 0 .6347.0304.9433.0782C17.484 12.0678 16.4247 9.845 16 8.5664zm.0059 1.3516a.1.1 0 0 1 .08.041s.1139.1577.2286.3496c.0573.096.1155.1998.1601.3008.0446.101.0781.1966.0781.291v.0273c0 .0944-.0335.1901-.078.291-.0447.101-.103.205-.1602.3008a5.4439 5.4439 0 0 1-.2286.3496.1.1 0 0 1-.162 0s-.114-.1577-.2286-.3496c-.0573-.0959-.1155-.1998-.1601-.3008-.0446-.1009-.0782-.1966-.0782-.291v-.0273c0-.0944.0336-.19.0782-.291.0446-.101.1028-.2049.1601-.3008a5.4416 5.4416 0 0 1 .2285-.3496.1.1 0 0 1 .082-.041zm-1.129 1.5488a.1.1 0 0 1 .047.0078s.1838.0828.3866.1973c.1015.0572.2083.123.3008.1914.0925.0683.1722.1364.2207.2207l.0157.0254c.0482.0843.0655.188.078.3027.0126.1147.017.2405.0157.3574-.0028.234-.0234.4356-.0234.4356a.1.1 0 0 1-.1407.082s-.1858-.0847-.3886-.1992c-.1015-.0572-.2063-.1211-.2989-.1895-.0925-.0683-.1721-.1364-.2207-.2207a.1.1 0 0 0-.002-.002c-.0024-.0042-.0036-.0077-.0058-.0116a.8362.8362 0 0 1-.0078-.0137c-.0483-.0844-.0675-.1861-.08-.3008-.0127-.1146-.0151-.2405-.0137-.3574.0028-.234.0234-.4356.0234-.4356a.1.1 0 0 1 .0938-.0898zm2.2442 0a.1.1 0 0 1 .0957.0898s.0205.2017.0234.4356c.0015.117-.001.2427-.0136.3574-.0127.1147-.0315.2164-.0801.3008l-.0156.0254a.1.1 0 0 0 0 .002c-.0486.0842-.1283.1523-.2207.2206-.0925.0684-.1975.1323-.2989.1895-.2026.1145-.3867.1992-.3867.1992a.1.1 0 0 1-.1406-.082s-.0224-.2017-.0254-.4356a3.0322 3.0322 0 0 1 .0156-.3574c.0125-.1145.03-.2164.0781-.3008.0064-.011.0088-.0154.0079-.0136l.0078-.0137c.0483-.0845.1282-.1524.2207-.2207.0924-.0684.1994-.1342.3008-.1914.2027-.1145.3867-.1973.3867-.1973a.1.1 0 0 1 .0449-.0078zm-4.3008 3.1016a.1.1 0 0 1 .045.1855c-.151.091-.235.1632-.2755.2129-.0403.0497-.036.0658-.0351.0684.0003.0013.0072.0043.0117.0078.531-.4095 1.1131-.3553 1.5488-.1895.4522.172.7676.457.7676.457a.1.1 0 0 1-.0898.172c-.1989-.048-.3511-.068-.5157-.0958a.1.1 0 0 1 .1036.0528c.0056.0126.0035.0259.0078.039.013.0399.0254.0804.0254.123 0 .1504-.0851.2829-.207.3712-.122.0882-.2814.1386-.4571.1386-.1757 0-.337-.0504-.459-.1386-.122-.0883-.207-.2208-.207-.3711 0-.102.0462-.1906.1094-.2676-.1457.0268-.2545.0635-.3106.1055-.1004.0751-.0891.1283-.0644.166.1316.2012.328.3537.5586.4355a.1.1 0 0 1-.0293.1953c-.834.0276-1.2349-.205-1.4102-.4687-.175-.2635-.1133-.5403-.1133-.541.0732-.3524.3352-.5268.5625-.5996.2275-.073.4336-.0586.4336-.0586zm6.3574 0s.208-.0144.4356.0586c.2274.0729.4894.2468.5625.5996.0003.0015.0595.278-.1153.541-.1752.2638-.5746.4963-1.4082.4687a.1.1 0 0 1-.0312-.1953c.2305-.0818.4268-.2342.5586-.4355.0247-.0377.036-.0909-.0645-.166-.056-.042-.1648-.0787-.3105-.1055.0631.077.1094.1656.1094.2676 0 .1503-.0853.2828-.207.371-.1219.0883-.2818.1387-.4571.1387-.1757 0-.3369-.0504-.459-.1386-.122-.0883-.207-.2206-.207-.3711a.4186.4186 0 0 1 .0332-.1621.1.1 0 0 1 .1015-.0528c-.1641.0278-.3153.0479-.5136.0957a.1.1 0 0 1-.0899-.1719s.3154-.285.7676-.457c.4357-.1658 1.018-.22 1.5488.1895.0045-.0035.0118-.0065.0118-.0078.0005-.0026.0052-.0187-.0352-.0684-.0404-.0497-.1245-.122-.2754-.2129a.1.1 0 0 1 .045-.1855zm-1.4257.8398a.1.1 0 0 1 .0566.0703v.004c0 .0085.0055.0212.0273.037.0218.0158.0578.0293.1016.0293.0433 0 .0818-.0135.1035-.0293.0217-.0158.0254-.0285.0254-.037 0-.0086-.0037-.0214-.0254-.0372-.0217-.0158-.0603-.0293-.1035-.0293a.189.189 0 0 0-.084.0195.1.1 0 0 1-.1015-.0273zm-3.6915.0078c-.0437 0-.0817.0135-.1035.0293-.0217.0158-.0254.0286-.0254.0371 0 .0086.0036.0213.0254.0371s.0598.0293.1035.0293c.0433 0 .0818-.0135.1036-.0293.0217-.0158.0254-.0285.0254-.037v-.004a.1.1 0 0 1 .037-.045.1.1 0 0 1-.082.002.193.193 0 0 0-.084-.0195zm-7.119 1.9492c-.0385.0437-.0757.0838-.1134.129-.1776.2128-.3439.4405-.377.5644a.2938.2938 0 0 0 .209.3613.2949.2949 0 0 0 .3614-.209c.033-.1242.0029-.4028-.045-.6757-.01-.058-.0236-.1129-.035-.17zm18.117 0c-.0114.057-.025.112-.035.17-.0479.2729-.078.5515-.045.6757a.2949.2949 0 0 0 .3613.209.2938.2938 0 0 0 .209-.3613c-.033-.124-.1993-.3516-.377-.5645-.0376-.045-.0748-.0852-.1132-.1289zm-9.8534.959a.1.1 0 0 1 .125 0c.0447.0351.092.067.1406.0957a.5638.5638 0 0 1 .0996.0762.1.1 0 0 1 .0059.0059.6082.6082 0 0 1 .0742.0976c.0313.0502.063.0967.0976.1426a.1.1 0 0 1 0 .123.3341.3341 0 0 1-.289.127.41.41 0 0 1-.379-.379.337.337 0 0 1 .125-.289zm1.4629 0a.1.1 0 0 1 .125 0 .3365.3365 0 0 1 .125.289c-.0142.2023-.1751.3648-.377.379a.3372.3372 0 0 1-.291-.127.1.1 0 0 1 0-.123 1.9143 1.9143 0 0 0 .0977-.1426.6195.6195 0 0 1 .0761-.0976.1.1 0 0 1 .004-.006.5639.5639 0 0 1 .0995-.076 1.305 1.305 0 0 0 .1407-.0958zm-1.1035 1.4863c.0986-.0036.1946.0247.289.0782a.1.1 0 0 1 .0059.0039.3344.3344 0 0 0 .1367.0508.1.1 0 0 1 .0039 0 .1.1 0 0 0 .002 0 .3273.3273 0 0 0 .1367-.0508.1.1 0 0 1 .0058-.004c.0942-.0533.1909-.0817.289-.078.0983.0036.194.0361.3009.0859.0919.0427.1997.074.293.1113.0466.0187.0893.039.1288.0684.0396.0293.081.077.086.1406.005.0654-.0086.159-.08.2148-.0715.056-.1629.0685-.297.0664-.0063 0-.0113-.0017-.0175-.002a.1.1 0 0 1 .0605.1368c-.0864.1876-.227.3361-.4023.416-.1606.0785-.3335.1201-.5079.1192a1.1132 1.1132 0 0 1-.5117-.123c-.1757-.082-.3154-.2372-.3965-.4298a.1.1 0 0 1 .045-.1172c-.1376.0021-.2292-.0113-.3008-.0683a.2078.2078 0 0 1-.0703-.1074.3147.3147 0 0 1-.0078-.1055c.005-.064.0462-.1114.0859-.1406.0397-.0293.0842-.0498.1309-.0684.0932-.0372.2011-.0688.291-.1113.106-.05.2021-.0824.3008-.086zm-.4297.6875a.1.1 0 0 1 .1015-.0058c.1154.0736.2407.1244.3692.1484a.1.1 0 0 0 .002 0c.129.027.2592.041.3905.041a1.972 1.972 0 0 0 .3907-.037.1.1 0 0 1 .0039 0 1.0683 1.0683 0 0 0 .373-.1387.1.1 0 0 1 .0801-.0098c-.1268-.004-.2407-.0261-.33-.039-.093-.0135-.1553-.0113-.1837.0019a1.2156 1.2156 0 0 1-.1953.1035.1.1 0 0 1-.0156.0059.4995.4995 0 0 1-.2383 0 .1.1 0 0 1-.0137-.004 1.1015 1.1015 0 0 1-.1933-.1054c-.0287-.014-.093-.0156-.1875-.002-.0946.0137-.2144.039-.3535.041z"
  />
</svg>