<svg
  xmlns="http://www.w3.org/2000/svg"
  fill-rule="evenodd"
  viewBox="0 0 32 32"
>
  <path
    d="M16 4C9.371 4 4 9.371 4 16c0 5.3008 3.4375 9.8008 8.207 11.3867.6016.1094.8203-.2578.8203-.5781 0-.2852-.0117-1.039-.0156-2.039-3.3398.7226-4.043-1.6094-4.043-1.6094-.5468-1.3868-1.332-1.7579-1.332-1.7579-1.0898-.7421.082-.7265.082-.7265 1.2032.086 1.836 1.2344 1.836 1.2344 1.0703 1.8359 2.8086 1.3046 3.4922 1 .1093-.7774.4218-1.3047.7617-1.6055-2.664-.3008-5.4649-1.332-5.4649-5.9297 0-1.3125.4688-2.3828 1.2344-3.2227-.121-.3007-.5351-1.5234.1172-3.1757 0 0 1.0078-.3203 3.3008 1.2304.957-.2656 1.9844-.3984 3.0039-.4023 1.0195.0039 2.0469.1367 3.004.4023 2.2929-1.5508 3.2968-1.2304 3.2968-1.2304.6562 1.6523.246 2.875.121 3.1757.7696.8399 1.2305 1.9102 1.2305 3.2227 0 4.6094-2.8046 5.621-5.4765 5.9219.4297.3672.8125 1.1015.8125 2.2187 0 1.6055-.0117 2.8985-.0117 3.293 0 .3203.2148.6953.8242.5781C24.5664 25.797 28 21.3007 28 16c0-6.629-5.371-12-12-12Z"
    fill="currentColor"
  />
</svg>