<svg
  xmlns="http://www.w3.org/2000/svg"
  xml:space="preserve"
  viewBox="0 0 32 32"
>
  <path
    fill="currentColor"
    d="M16 4C9.3712 4 4 9.3712 4 16c0 6.6264 5.3712 12 12 12 6.6264 0 12-5.3736 12-12 0-6.6288-5.3736-12-12-12zm-.0117 2.4297h.002a10.1176 10.1176 0 0 1 6.4824 2.2207.1.1 0 0 1-.0176.168 6.1972 6.1972 0 0 1-.377.1738.1.1 0 0 1-.1015-.0117A9.571 9.571 0 0 0 16.453 7.002l.0332-.006a.2444.2444 0 0 1-.1035.0099l.0078.002a19.1884 19.1884 0 0 0-.3984-.0118c-.131.003-.266.006-.4004.0117l.0078-.002a.2238.2238 0 0 1-.1035-.0097l.0351.0059a9.4314 9.4314 0 0 0-4.9707 1.5937.1.1 0 0 1-.123-.0078c-.1-.091-.1932-.1795-.2773-.2578a.1.1 0 0 1 .0117-.1543c1.3277-.905 3.2712-1.7723 5.8164-1.7461zM9.25 7.7773a.2906.2906 0 0 1 .1973.088s.823.8601 1.9004 1.707c.9237-.0106 1.8632-.3848 1.8632-.3848a.1.1 0 0 0 .002-.002c.1438-.0565.3088.0152.3672.1583a.2842.2842 0 0 1-.1524.3671.1.1 0 0 0-.002.002s-.6843.2143-1.3769.3398c.8479.585 1.7784 1.1088 2.5684 1.1641.384.0266.8721.03 1.3476.0332-.8016-.2985-1.6473-.6634-1.6484-.664a.283.283 0 0 1 .2754-.4941c0-.0001.6207.2638 1.125.4765-.0686-.0675-.2598-.2325-.2598-.2325-.107-.1139-.096-.2975.0196-.4023.1145-.1022.2921-.0954.3964.0176 0 0 .6995.7482 1.545 1.1445.002.0004.0038.0016.0058.002a6.577 6.577 0 0 0 .414.0625c1.0815-.1395 2.1922-.5116 3.2286-1.0957-1.0215.269-2.1914.5312-2.1914.5312a.1.1 0 0 0-.002 0 .2883.2883 0 0 1-.3085-.2559c-.014-.1549.103-.2954.2578-.3105 0 0 2.0946-.2072 3.877-1.1484.14-.1492.2744-.3053.4062-.4747a.2842.2842 0 0 1 .4004-.0488.2852.2852 0 0 1 .0507.3946.1.1 0 0 0-.002 0c-.7874 1.011-1.7612 1.6542-2.7773 2.121.5848-.0786 1.2735-.1816 1.2735-.1816a.1.1 0 0 0 .002 0c.1481-.041.3048.0452.3495.1953a.1.1 0 0 0 .002.002c.0398.1478-.0482.308-.2012.3476-.0017.0005-1.1924.3264-2.6777.2813-.4131.3323-.8489.6142-1.2559.8437a.1.1 0 0 0-.002.002c-.0151.0082-.0577.0324-.0976.0547-.02.0111-.0388.022-.0566.0312-.0119.0061-.0234.0107-.0352.0156l-.0176.0079c-.8313.4413-1.5083.6694-1.5097.6699-.1477.05-.3116-.0313-.3594-.1797-.0231-.0702.0573-.107.086-.17-.5202.035-.9786.0313-.9786.0313-.1547-.0094-.2764-.144-.2675-.2988a.2872.2872 0 0 1 .3007-.2656.1.1 0 0 0 .002 0s1.2007.0708 2.5234-.3184c.188-.1025.3872-.2364.584-.3613-1.3545.235-2.687.2703-3.6777.209-.0143.014-.0263.0271-.0508.043a.1.1 0 0 0-.002 0c-.4167.2617-1.0355.4429-1.5547.5644-.519.1215-.9375.1816-.9375.1816a.1.1 0 0 1-.0058 0c-.1537.0121-.2921-.1043-.3066-.2578-.0143-.155.1025-.2947.2578-.3086 0 0 .4203-.1003.6582-.1426-.4234-.0393-1.0293-.0761-1.0293-.0761a.2893.2893 0 0 1-.2207-.336.1.1 0 0 0 0-.002.2892.2892 0 0 1 .3379-.2187.1.1 0 0 0 .002 0s.6503.0595 1.2382.086c-.5323-.2419-1.0724-.5157-1.5723-.8711a.1.1 0 0 0-.002-.002c-.0254-.0196-.0567-.0404-.0878-.0625-.0301.002-.0606.005-.0938.002a.1.1 0 0 1-.0039 0c-.463-.0598-1.0554-.2894-1.539-.504-.4836-.2144-.8555-.416-.8555-.416a.1.1 0 0 1-.0059-.0019c-.1343-.082-.1738-.2627-.0879-.3945a.2879.2879 0 0 1 .3868-.0899.1.1 0 0 0 .002.002s.5898.2572 1.0546.4629c-.6289-.558-1.3105-1.1895-1.3105-1.1895-.1067-.1133-.1037-.2937.0078-.4023a.1.1 0 0 1 .0039-.004.2832.2832 0 0 1 .2031-.0742zm14.0352 1.6192a.1.1 0 0 1 .0546.0273c.4204.4234.6387.7266.6387.7266a.1.1 0 0 1 .0059.0059l.0078.0156c.177.2983.318.6327.414.9804.0037.0045.0126.0125.0137.0137a.1.1 0 0 1 .0098.0117C25.4773 12.773 26 14.676 26 16.7187a.2845.2845 0 0 1-.2832.2833.2845.2845 0 0 1-.2832-.2832c0-1.5304-.329-2.9552-.957-4.2325-.0645.385-.1685.7504-.2676 1.1016-.106.374-.1828.7417-.1192 1.1543.084.5565.3522 1.0333.6504 1.5137.3159.5096.6639 1.0186.8672 1.6113.3991 1.161.1005 2.343-.0234 3.4746-.0172.1528-.1578.2658-.3106.25a.2797.2797 0 0 1-.252-.3105c.118-1.0998.4089-2.1913.0509-3.2305-.183-.5324-.509-1.0036-.8164-1.498-.1239-.2015-.2355-.4105-.3438-.6212-.6985 1.1133-.8509 2.2373-.7988 3.4141.0547 1.3654.335 2.7875.2168 4.295-.0117.1556-.149.2743-.3047.2616a.1.1 0 0 0-.002 0c-.1524-.0156-.2673-.1517-.2578-.3046a.1.1 0 0 0 0-.002c.1126-1.455-.163-2.8544-.2207-4.2266-.0584-1.384.119-2.7453 1.0899-4.08a3.3657 3.3657 0 0 1-.1075-.463c-.0756-.5082.0144-.9591.1348-1.3925.1116-.4.2476-.7818.293-1.1953.0663-.5888-.1341-1.2412-.4453-1.7715-.043-.0543-.225-.2913-.5743-.6406a.1.1 0 0 1 .004-.1446c.0879-.0822.1715-.1695.2597-.2578a.1.1 0 0 1 .086-.0273zm-14.586.0469a.1.1 0 0 1 .0742.043.4512.4512 0 0 0 .127.121l.002.002a.093.093 0 0 0 .0136.0058l.1192.0625a.1.1 0 0 1 .0253.1582c-.344.352-.5259.592-.5585.6348v.002c-.33.5356-.5073 1.1759-.4434 1.7675.0446.4133.1814.7932.293 1.1934.1203.433.2124.884.1367 1.3926a.1.1 0 0 0 0 .002c-.0248.1505-.062.299-.1055.4452.9825 1.3379 1.1661 2.7055 1.1055 4.0957-.0556 1.3725-.3352 2.7717-.2227 4.2266a.286.286 0 0 1-.2597.3086c-.1557.0127-.2934-.1078-.3028-.2637-.1177-1.5072.1592-2.9298.2168-4.2949.0493-1.183-.1039-2.3125-.8105-3.4316-.1096.217-.2205.4337-.3516.6386v.002c-.3064.4946-.6317.964-.8144 1.496-.3574 1.0387-.0702 2.1292.0507 3.2286.0194.1547-.0952.2951-.25.3105-.1537.0177-.2976-.0955-.3125-.25-.124-1.1308-.4255-2.3121-.0273-3.4726.2041-.5927.5541-1.1015.873-1.6113.2983-.4804.5644-.9572.6485-1.5137.0608-.4122-.0162-.7804-.1192-1.1543-.101-.3575-.2098-.728-.2734-1.1211-.6339 1.281-.9668 2.7134-.9668 4.252a.2845.2845 0 0 1-.2832.2832A.2845.2845 0 0 1 6 16.7188c0-2.0428.5247-3.9459 1.5723-5.541.0078-.0122.0175-.0226.0273-.0333a3.7931 3.7931 0 0 1 .4238-.9804.1.1 0 0 1 .0118-.0137l.0039-.004.0078-.0097c.0078-.011.1944-.2726.5722-.662a.1.1 0 0 1 .0801-.0313zm10.5098 2.543a.1.1 0 0 1 .0508.0077c.8187.3856 1.668.9362 2.541 1.6856.0848.0727.1134.1903.082.2969.0066.0523.0134.1059-.0078.1562a.1.1 0 0 1-.002.0059c-.2851.5718-.5283 1.2386-.4648 1.8515.0446.4215.1836.813.293 1.2227v.002c.12.4432.2122.9026.1367 1.4218-.0987.6679-.4016 1.2279-.7266 1.7656-.3073.507-.6352.993-.8183 1.541-.3579 1.0672-.0701 2.1875.0508 3.3145.0179.1533-.0973.2911-.25.3086-.1535.0175-.2953-.0944-.3106-.248-.124-1.1575-.4272-2.3684-.0293-3.5547.2039-.608.5522-1.13.8711-1.6543.2957-.4933.5662-.983.6504-1.5567.0228-.1539-.0068-.2932-.0156-.4375-.5669 1.8871-2.014 3.9317-4.4082 5.1993-.2805.1475-.2712.1472-.6309.205a.1.1 0 0 1-.0156.002h-.1153a2.2016 2.2016 0 0 1-.9257-.2031.1.1 0 0 0-.002 0c-2.4567-1.1373-3.9165-3.2498-4.4941-5.1622-.0052.1315-.031.2583-.0098.3965.085.575.3522 1.0647.6504 1.5567.3157.5248.666 1.047.8691 1.6543.3987 1.187.0963 2.3974-.0254 3.5547a.2847.2847 0 0 1-.3144.25.1.1 0 0 0-.002 0 .2862.2862 0 0 1-.25-.3067.1.1 0 0 0 .002-.002c.1209-1.1278.4098-2.2485.0527-3.3163-.1838-.548-.5137-1.0337-.8183-1.541h.002c-.3282-.5381-.631-1.0976-.7266-1.7657-.0763-.5188.0124-.9795.1328-1.4238.1115-.4088.2482-.8002.293-1.2227a.1.1 0 0 0 0-.002c.0668-.6122-.1792-1.2771-.461-1.8495a.1.1 0 0 0 0-.002c-.0254-.0526-.0215-.1106-.0137-.168-.0239-.0934-.007-.1939.0586-.2656a.1.1 0 0 0 0-.002s.5624-.6086 1.545-1.2265a.1.1 0 0 1 .1425.0352.4542.4542 0 0 0 .2363.207.1.1 0 0 1 .0157.1777c-.2308.1411-.4456.3068-.6621.4688 2.411-.4965 3.6704.2044 3.8496.3437l.0195.0137a.1.1 0 0 1 .004.004.3399.3399 0 0 1 .1054.1776.1.1 0 0 1 .002.0059c.0104.0627.1298.7997.205 1.6367.0376.4185.065.861.0606 1.2578-.0045.3969-.0367.7454-.1309.9903-.027.0705-.1053.088-.1719.1172-.0035.0053-.002.0143-.0058.0195l-.0059-.0098c-.0295.011-.0416.0506-.0742.0508a.1.1 0 0 1-.08-.1582c.0163-.0223.0455-.1004.0624-.2012.0169-.1007.0256-.2255.0313-.3535.0114-.256.0058-.5248.0058-.6719 0-.2355-.073-.6751-.164-1.1464-.0874-.4528-.1888-.9322-.2579-1.3262-.2337-.1575-1.5189-.8664-4.203-.0254.2805.605.5207 1.2857.453 1.959a.1.1 0 0 0 0 .002.1.1 0 0 0 0 .0019c-.038.293-.1032.5802-.1875.8633.1706 1.9728 1.7094 4.6248 4.498 5.914.2172.0992.45.1504.6915.1504h.0977c.2614-.0578.1895-.0447.418-.1504 2.7991-1.293 4.2491-3.9525 4.414-5.9316a.1.1 0 0 0 .002-.002c-.0815-.2765-.1442-.5596-.1797-.8457a.1.1 0 0 0 0-.002c-.0388-.3633.016-.73.1171-1.0859-.0056.0104-.011.021-.0175.0313-.0086.0135-.0184.0264-.0254.0371-.007.0107-.0153.0235-.0117.0176a.1.1 0 0 1-.0176.0234c-.3564.3242-.8572.306-1.291.2188.0153.0572.0387.1122.039.1718.004.3695-.2966.6732-.666.6758a.1.1 0 0 0-.002 0c-.3682-.004-.6655-.3075-.6601-.6758 0-.0625.0313-.1124.0469-.1699a9.8806 9.8806 0 0 0-.6153.0977.1.1 0 0 1-.082-.1758c.3058-.2574.6647-.4626 1.0605-.5606.1601-.0407.3199-.0665.4805-.0722a1.917 1.917 0 0 1 .4863.043c.3015.07.5746.1816.8536.2148.12.0147.1845-.0047.3164-.043a.1.1 0 0 0 .002 0l.0273-.0039.0449.0098.039.0351.0137.0352v.0176c.0827-.2729.1901-.539.3067-.791-.9752-.5303-1.859-.511-2.5352-.338-.6613.1692-1.1031.4808-1.2305.5782-.0796.2076-.116.4287-.0898.6465a.1.1 0 0 0 0 .002.1.1 0 0 0 0 .0019.1.1 0 0 0 0 .002.1.1 0 0 0 0 .0019.1.1 0 0 0 0 .002.1.1 0 0 0 0 .0019v.0176a.1.1 0 0 0 0 .002.1.1 0 0 0 0 .0019.2785.2785 0 0 1-.2559.2695.1.1 0 0 1-.0332-.002l-.0215-.0058.0293.002a.2802.2802 0 0 1-.287-.2461 1.9477 1.9477 0 0 1 .1503-.9844.1.1 0 0 1 .0059-.0117l.0215-.0352a.1.1 0 0 1 .0234-.0254l.0313-.0254c.0134-.0112.1056-.0874.2812-.1972a4.4278 4.4278 0 0 1 .7422-.3711c.4448-.1726 1.0587-.2332 1.7227-.1778a3.7676 3.7676 0 0 1 .3984.045c.0014.0002.0025.0017.0039.002.0078.001.0156.0006.0234.0019-.4643-.3143-.9405-.6117-1.453-.8399a.1.1 0 0 1-.0138-.1758c.118-.0757.239-.1571.3575-.2382a.1.1 0 0 1 .0488-.0157zm-8.5938 1.9882c-.0014.0005-.0025.0015-.0039.002.0017.0057.0014.0122.004.0175l.0058-.0058-.0059-.0137zm2.6387.6055c.1622.0047.3221.0292.4785.0722h.002c.3957.098.7552.3023 1.0605.5606a.1.1 0 0 1-.086.1738c-.202-.0418-.4066-.069-.6112-.0957.016.0575.0468.107.0468.17 0 .3722-.2958.6757-.662.6757-.3663 0-.6641-.3035-.6641-.6758 0-.0614.022-.115.037-.1718-.4334.0858-.9348.1035-1.289-.2207a.1.1 0 0 1-.0039-.002c-.0121-.012-.012-.0146-.0156-.0195-.0036-.005-.0076-.0098-.0117-.0157a.975.975 0 0 1-.0254-.039.4504.4504 0 0 1-.0254-.045c-.0038-.008-.0077-.0141-.0117-.037a.2902.2902 0 0 1-.002-.0235l.004-.0195.0097-.0254a7.94 7.94 0 0 1 .0234-.0273 7.622 7.622 0 0 1 .0332-.0196l.0293-.0039.0235.002a.1.1 0 0 1 .0078.002c.1277.0382.1925.0577.3125.0429.2782-.0332.552-.1448.8535-.2149a.1.1 0 0 0 .002 0c.1482-.0316.2996-.0411.4511-.039.0112.0002.022-.0043.0332-.004zm3.8027 3.8281a.1.1 0 0 1 .0547.0313.1.1 0 0 1 .0313.0722.1.1 0 0 1 .002.0059c.047.0666.1003.1335.0937.2168-.0174.211-.1855.381-.3965.3984a.1.1 0 0 0-.002 0 .3455.3455 0 0 1-.3007-.1406.1.1 0 0 1 0-.1211 2.5904 2.5904 0 0 0 .1035-.1426.4997.4997 0 0 1 .1914-.1953.1.1 0 0 0 0-.002 1.3857 1.3857 0 0 0 .1504-.1015.1.1 0 0 1 .0722-.0215zm-1.7187.0215a1.915 1.915 0 0 0 .1484.1015l.004.002a.5036.5036 0 0 1 .1874.1855l.004.004c.034.0538.065.1058.0996.1484a.1.1 0 0 1 .0019.123.3553.3553 0 0 1-.3027.1348.4324.4324 0 0 1-.3985-.3984.1.1 0 0 0 0-.002.3567.3567 0 0 1 .1309-.2969.1.1 0 0 1 .125-.002zm.2851 1.582c.1058-.0046.208.0287.3067.0899a.1.1 0 0 1 .0039.002.3646.3646 0 0 0 .1367.0566.1.1 0 0 1 .004-.002h.0254c.0477-.0101.095-.026.1347-.0547a.1.1 0 0 1 .0058-.0039c.099-.061.2019-.0924.3067-.0879.1048.0045.2055.0409.3183.0977.0983.0493.2135.0865.3125.1289.0495.0212.0956.0435.1368.0762.0411.0326.0816.0835.0859.1484.0048.0726-.0066.1681-.08.2305-.0735.0623-.172.0773-.3145.0742-.145-.0012-.2708-.0272-.3711-.043-.1004-.0158-.1672-.0166-.1993 0a1.2186 1.2186 0 0 1-.203.1192.1.1 0 0 1-.0157.0058.5084.5084 0 0 1-.2559 0 .1.1 0 0 1-.0156-.0058 1.1704 1.1704 0 0 1-.2012-.1192c-.033-.017-.0984-.0176-.1992-.002-.1008.0157-.2293.043-.377.045-.1466.0027-.2468-.0107-.3202-.0742-.0735-.0635-.0808-.1602-.0762-.2305.0051-.0648.0466-.116.0879-.1484.0412-.0325.0873-.0552.1367-.0762.0987-.042.212-.0782.3086-.127.1113-.0572.213-.0949.3183-.0996zm-.4003.7832c.1335.071.2732.1197.418.1406a.1.1 0 0 1 .0038 0c.1467.0257.291.041.4356.041.1495 0 .2974-.0105.4433-.0331a.1.1 0 0 0 0-.002 1.4232 1.4232 0 0 0 .42-.1328.1.1 0 0 1 .1328.1367c-.0097.0182-.034.0218-.045.039l.002.002c-.0019.001-.004.001-.0059.002-.097.151-.2252.2813-.3925.3457a1.4752 1.4752 0 0 1-.5547.1094c-.1888 0-.3774-.036-.5547-.1133l-.002-.002h-.002c-.1662-.066-.2896-.2002-.3827-.3515-.0032-.0016-.0067-.0022-.0098-.004l.004-.0019c-.0113-.0186-.0372-.0234-.047-.043a.1.1 0 0 1-.0097-.0449.1.1 0 0 1 .1465-.0879z"
  />
</svg>