<svg xmlns="http://www.w3.org/2000/svg" xml:space="preserve" viewBox="0 0 32 32"><path fill="currentColor" d="M16 4A12 12 0 0 0 4 16a12 12 0 0 0 12 12 12 12 0 0 0 12-12A12 12 0 0 0 16 4zM9.5898 6.8613c.183 0 .3775.0086.4766.0235.872.1311 1.9076.627 2.8496 1.3672l.2383.1875.2637-.1133c1.4954-.6419 3.474-.63 5.2304.0312l.2149.082.2363-.2148c.9645-.88 1.9446-1.3032 3.0996-1.336.8007-.0226.8585-.003 1.0977.3614.5217.7948.7853 2.1134.7441 3.7305-.0125.4919-.0705 1.3137-.0976 1.3906-.0058.0164.0312.1983.082.4043 1.1086 4.4988.1628 7.789-2.7285 9.4883l-.088.0527v.6992c0 .8116.0172.7523-.2519.9063-.8032.4598-1.9905.8726-3.041 1.0586-.4867.0861-.462.0786-.4414.125.6956 1.5608-1.0568 2.9967-2.4082 1.9726-.5311-.4025-.7522-1.1742-.5176-1.8027.0403-.108.0723-.1983.0723-.2012 0-.0028-.0433-.0131-.0977-.0215a11.488 11.488 0 0 1-2.4277-.6562c-.4515-.1776-1.2573-.5735-1.289-.6328-.0167-.031-.025-.2654-.0254-.6719l-.002-.623-.2305-.125c-2.9368-1.586-3.9059-5.239-2.5215-9.5098l.127-.3945-.0586-.422c-.1085-.765-.1182-.9057-.1172-1.6894.0015-1.1779.1345-1.862.5078-2.6015.1916-.3797.5368-.7947.6992-.8418.0513-.015.2214-.0235.4043-.0235zm-.2636.3692-.1309.1347c-.7937.817-1.0553 2.6317-.6933 4.8164l.0468.2852-.1152.3437c-.4747 1.4134-.681 2.8714-.6172 4.1797.016-.0017.0455.0191.0918.0703l.0684.0762-.0704-.0644c-.0392-.0355-.0792-.0576-.0878-.0489.0005.0097-.0006.0197 0 .0293l.1191.1035c1.6264 1.4207 3.684 1.3055 5.4785-.3085.5834-.5248 1.4323-.9351 2.1817-1.0528.9944-.1566 2.109.2258 2.9414 1.0078.041.0385.082.0725.123.1094-.0296-.0264-.0526-.0463-.1074-.1016-.0825-.0832-.1431-.1503-.1367-.1503.0064 0 .0777.067.1601.1503.0742.0749.1188.125.125.1368 1.828 1.6229 3.7027 1.7161 5.2696.2441a.8427.8427 0 0 1 .0761-.0644c.123-1.2446-.0065-2.6712-.3965-4.2832l-.0957-.3946.0372-.3574c.2085-2.0277-.0295-3.7765-.6348-4.668l-.0957-.1425-.2051-.0157c-1.2334-.103-2.4572.3883-3.4414 1.3828l-.25.252-.1465-.0664c-.0804-.0365-.281-.1117-.4453-.168-1.7793-.6095-3.6113-.5737-4.998.0977l-.2774.1347-.2344-.1953c-.933-.7825-2.0276-1.3324-2.8828-1.4472-.1001-.0134-.2892-.0254-.4199-.0254h-.2363zm.8965 1.2617c.6351-.0253 2.0722.8957 2.0722 1.375 0 .1115-.1551.3203-.2383.3203-.167 0-1.4048.718-1.787 1.0371l-.2208.1856h-.1425c-.3105-.0009-.3439-.0798-.3243-.754.0509-1.7545.1153-2.0222.5235-2.1464a.4745.4745 0 0 1 .1172-.0176zM21.6582 8.5c.299-.0201.509.1062.586.3652.0818.2755.1517 1.2087.1523 2.041v.334l-.0781.0782c-.1634.1634-.3349.1384-.6016-.084-.373-.3111-.6605-.4909-1.3086-.8145-.6865-.3427-.7187-.3665-.7187-.5566 0-.3693.823-1.0164 1.6425-1.293.118-.0398.2265-.0636.3262-.0703zm-1.959 4.3848c.3717.003.7828.1321 1.0137.3398.5647.5079.1283 1.162-.7734 1.1602-1.2628-.0026-1.7276-1.153-.5899-1.459.1072-.0289.2257-.042.3496-.041zm-7.3887.0039c.2117.0089.419.0541.5665.1289.8319.4216.268 1.3554-.8262 1.3672-1.244.0134-1.416-1.135-.2168-1.4493a1.483 1.483 0 0 1 .2656-.043 1.8377 1.8377 0 0 1 .211-.0038zm-.166 2.2285c.3404.0016.6732.1345.8926.3691.328.3507.3686.733.0781.7305-.119-.001-.1561-.0342-.2363-.2129-.283-.6311-1.2703-.6167-1.459.0215-.094.3178-.481.2297-.4199-.0957.0628-.3349.4058-.6636.8047-.7695a1.3057 1.3057 0 0 1 .3398-.043zm7.5684.0058c.2507-.0125.5378.0422.7383.1485.4907.2602.7217.9453.3183.9453-.104 0-.2129-.0999-.2129-.1953 0-.0865-.1317-.2647-.25-.3399-.4435-.2818-.9994-.136-1.207.3184-.1048.2294-.2565.2927-.3828.1582-.2243-.2388.2476-.8587.7617-1a1.1013 1.1013 0 0 1 .2344-.0352zm-3.6484.6153c.1472 0 .2083.0032.1347.0078a2.5908 2.5908 0 0 1-.2676 0c-.0736-.0046-.0144-.0078.1329-.0078zm.0097.5566c-.3126-.0049-.5784.0206-.8867.084-.5115.1043-.7333.2508-.7598.5137.0005.0187.0051.0364.002.0527-.0016.0081-.0026.0049-.004.0059.0003.0343.0002.0692.006.1074.0802.524.5109.8947 1.1308.9727l.1328.0156-.0137.0722c-.1726.994-1.2088 1.3044-2.1015.629-.2188-.1658-.2817-.1862-.3828-.1348-.2906.1503-.0552.4824.5468.7734.8214.3973 1.7433.147 2.1641-.5879l.08-.1425.1095.166c.6003.9323 1.9733 1.008 2.746.1523.254-.2806-.0774-.505-.3867-.2617-.6584.5173-1.3236.5484-1.7968.082-.2594-.255-.4583-.7539-.3008-.7539.4523 0 1.0015-.3798 1.1523-.7969.22-.6097-.0773-.859-1.1055-.9336v-.002a6.0427 6.0427 0 0 0-.332-.0136zm-2.5488.4121c.0064 0-.0333.0459-.0899.1035-.0565.0577-.1088.1055-.1152.1055-.0064 0 .0352-.0478.0918-.1055.0565-.0576.1069-.1035.1133-.1035zm10.5156.3262c.0174 0-.0017.0216-.1152.129l-.1211.1151.1152-.123c.0635-.0673.1174-.1211.1211-.1211zm-13.6328 1.0781c.1344 0 .1902.005.123.0098a2.1294 2.1294 0 0 1-.244 0c-.0673-.0047-.0134-.0098.121-.0098zm10.8477.0684c.0576 0 .0815.0042.0527.0098a.3343.3343 0 0 1-.1055 0c-.0288-.0056-.0048-.0098.0528-.0098zm.4765 0c.0512-.0003.075.004.0528.0098-.0223.0058-.0648.0055-.0938 0-.029-.0056-.0102-.0096.041-.0098zm-5.9726.7851c.0064 0-.0334.0479-.0899.1055-.0565.0576-.1088.1035-.1152.1035-.0064 0 .0352-.0459.0918-.1035.0565-.0576.1069-.1055.1133-.1055zm.3222 4.7832c-.2189-.0432-.4005.386-.2832.7813.0438.1474.162.2793.25.2793.3066 0 .4058-.7787.129-1.0117-.032-.027-.0645-.0427-.0958-.0489zm-.3105.4668c.0018-.0095.005-.0085.0078.0059a.3223.3223 0 0 1 0 .1035c-.0055.0288-.0098.0069-.0098-.0508 0-.0288.0002-.049.002-.0586zm.7969.295-.0528.1308c-.2142.5272-.7251.5316-.916.0078-.0614-.1683-.0417-.1634-.2383-.0586-.8158.4353-.9663 1.5534-.2988 2.2227a1.459 1.459 0 0 0 .121.1055l.293-.4297c.1618-.2387.3285-.4837.3712-.543.0268-.0373.0347-.0532.0488-.0762-.0143.0082-.0172.0055-.0078-.0097.0117-.019-.086-.0281-.3516-.0332l-.3691-.0059.3789-.0058c.1715-.0024.2733-.0002.3281.0078-.0375-.0067-.1453-.0137-.3223-.0137h-.373v-.2324h.746v-.2324h-.746V25.1112h1.7226V25.3418l-.377.0078-.3788.0059v.0468c.0016-.0023.0019-.0045.0039.0059a.3223.3223 0 0 1 0 .1035c-.0018.0096-.0024.0053-.004.004v.0488l.3731.0117.3711.0117.0078.1113.0079.1094h-.375c-.128 0-.1652.0047-.2325.0078.0634-.0017.1387-.005.2266-.0039.3743.0044.33.0145-.1172.0254-.1341.0032-.2405-.0026-.246-.0117.0033.0116.155.2456.3456.5312.1928.2888.3569.54.3633.5567.0101.0263-.1207.1289-.164.1289-.012 0-.533-.7688-.6407-.9453-.0315-.0517.0178-.113-.4043.5078l-.2969.4375c.7925.4563 1.8572.0285 2.0606-.9434.1286-.6148-.2075-1.2953-.7656-1.5488l-.0918-.041zm-.4063 1.3164c.0026-.0042.0398-.0075.0938-.0098-.0207.0015-.0977.0022-.0977.004l.004.0058zm-.2793-.004c.0218.0035.03.008.0352.0137.0006-.0016.0078-.011.0078-.0117 0-.0009-.0387-.001-.043-.002z"/></svg>