<svg xmlns="http://www.w3.org/2000/svg" xml:space="preserve" viewBox="0 0 32 32">
  <path fill="currentColor" d="M16.129 5.254a2.7956 2.7956 0 0 0-.3536.0058h-.002a2.7997 2.7997 0 0 0-1.4726.5625 1.0001 1.0001 0 0 0-.002 0c-1.2202.9305-1.4598 2.7036-.5293 3.9238.9294 1.2197 2.7012 1.4612 3.922.5332a1.0001 1.0001 0 0 0 .0019-.002c1.2214-.9296 1.4613-2.7027.5312-3.9238-.504-.6618-1.2758-1.0605-2.0957-1.0996zm6.6874 11.916a2.7557 2.7557 0 0 0-.2832.0214c-1.5217.1963-2.614 1.613-2.418 3.1348.1962 1.5205 1.61 2.614 3.1309 2.4199 1.522-.1947 2.6162-1.6109 2.4219-3.1328-.1827-1.4279-1.4404-2.4791-2.8516-2.4434zm-13.7832.0136a2.8163 2.8163 0 0 0-.3984.041h-.002c-.9355.1661-1.7264.7975-2.0937 1.6738a1.0001 1.0001 0 0 0 0 .002c-.5922 1.4156.0863 3.0699 1.502 3.6621 1.4156.5922 3.0717-.0863 3.664-1.502.5922-1.4156-.0863-3.0718-1.502-3.664a1.0001 1.0001 0 0 0-.002 0 2.7907 2.7907 0 0 0-1.1679-.213z" />
</svg>