<svg
  xmlns="http://www.w3.org/2000/svg"
  fill-rule="evenodd"
  viewBox="0 0 32 32"
>
  <path
    fill="currentColor"
    d="M16 4C9.3455 4 4 9.3455 4 16s5.3455 12 12 12 12-5.3455 12-12S22.6545 4 16 4zm0 1.9629c.9818 0 1.8555.8736 1.8555 1.8555 0 1.0909-1.8555 7.0898-1.8555 7.0898s-1.8555-5.999-1.8555-7.0898c0-.9819.8737-1.8555 1.8555-1.8555zm-4.0371 4.1191c.4636 0 .9287.1905 1.3105.5723.7637.7636 2.1817 4.8008 2.1817 4.8008s-4.1463-1.5271-4.8008-2.1817c-.7636-.7636-.7636-1.9646 0-2.6191.3818-.3818.845-.5723 1.3086-.5723zm8.1426.041c.4772-.0136.9678.1495 1.3496.5313.7636.7636.7636 1.8555 0 2.6191-.7637.7637-4.8008 2.1817-4.8008 2.1817s1.527-4.1463 2.1816-4.8008c.3273-.3273.7923-.5176 1.2696-.5313zM7.8184 14.1445c.9818 0 7.0898 1.8555 7.0898 1.8555s-5.999 1.8555-7.0898 1.8555c-1.091 0-1.8555-.8737-1.8555-1.8555 0-.9818.8736-1.8555 1.8555-1.8555zm16.3632 0c.9819 0 1.8555.8737 1.8555 1.8555 0 .9818-.8736 1.8555-1.8555 1.8555-1.0909 0-7.0898-1.8555-7.0898-1.8555s5.999-1.8555 7.0898-1.8555zm-8.7265 2.4004s-1.5271 4.1463-2.1817 4.8008c-.7636.7636-1.8555.7636-2.6191 0-.7636-.7636-.7636-1.8555 0-2.6191.7636-.7637 4.8008-2.1817 4.8008-2.1817zm1.1992 0s4.1462 1.5271 4.8008 2.1817c.6545.7636.6545 1.9646 0 2.6191-.7637.7636-1.8555.7636-2.6192 0-.7636-.7636-2.1816-4.8008-2.1816-4.8008zM16 17.0918s1.8555 5.999 1.8555 7.0898c0 1.091-.8737 1.8555-1.8555 1.8555-.9818 0-1.8555-.8736-1.8555-1.8555 0-.9818 1.8555-7.0898 1.8555-7.0898z"
  />
</svg>