<svg
  xmlns="http://www.w3.org/2000/svg"
  xml:space="preserve"
  viewBox="0 0 32 32"
>
  <path
    fill="currentColor"
    d="M16 4C9.3712 4 4 9.3712 4 16c0 6.6264 5.3712 12 12 12 6.6264 0 12-5.3736 12-12 0-6.6288-5.3736-12-12-12zm.0332 2.123a.1.1 0 0 1 .0059 0h.039a.1.1 0 0 1 .004 0s1.426.0756 3.1523.7305l.0078.002c.007.0025.0115.0038.0156.0058l.0059.002a.1.1 0 0 1 .0039.002c.676.259 1.398.6072 2.1015 1.0761a.1.1 0 0 1 0 .168c-.111.072-.216.1455-.3125.2187a.1.1 0 0 1-.1152.004c-.5466-.3535-1.1023-.623-1.6367-.8419l-1.1211 2.6407a.2837.2837 0 0 1-.1055.127l-1.912 1.2362a.1.1 0 0 1-.0079.004c.0007-.0007.0016-.0023.004-.004a.1.1 0 0 1-.0606.0215l-.004.002c-.027.009-.0538.021-.082.0215a.1.1 0 0 0-.002 0h-.0039c-.0266 0-.0545-.0113-.082-.0196l-.0058-.002h-.002a.1.1 0 0 1-.0644-.0253h-.002l-1.9062-1.1856a.1.1 0 0 0-.002 0 .2847.2847 0 0 1-.1074-.123L12.664 7.5234c-.5228.2154-1.0642.4767-1.5957.8164a.1.1 0 0 1-.1133-.0039 5.1288 5.1288 0 0 0-.3106-.2187.1.1 0 0 1 0-.168c2.5534-1.6846 5.3887-1.8262 5.3887-1.8262zm.0234.5625c-.0947.0055-1.3688.122-2.8632.6426l1.125 2.5469 1.6875 1.0488 1.6914-1.0937 1.082-2.539c-.736-.2578-1.415-.4193-1.9004-.502a9.48 9.48 0 0 0-.6035-.084 6.5421 6.5421 0 0 0-.164-.0156c-.0185-.0015-.0319-.0034-.041-.004-.0038-.0002-.0057.0002-.0079 0h-.0059zm-7.7265.5079a.1.1 0 0 1 .0156.0058v-.0039c2.1388.5649 3.1588 1.4803 3.6309 2.2793.4103.6942.3985 1.283.3886 1.4219a.1.1 0 0 1-.0234.0566c-.0078.0092-.0078.0121-.0059.0078a.1.1 0 0 0-.002 0s-.1357.3048-.3573.6075a.1.1 0 0 1-.0059.0078l-.2734.3144a.1.1 0 0 1-.0059.0059c-.1185.1108-.254.2054-.4101.2383a.1.1 0 0 1-.0079.002c-.034.004-.0638.0051-.0898.0077l-.0195.004a.1.1 0 0 1-.0059 0c-1.1876.1185-1.957-.1514-2.4453-.545-.515-.4151-.705-.9524-.7734-1.246a.1.1 0 0 1 .127-.1192l.1327.041a.1.1 0 0 1 .0488.0352c.2082.2686.5172.5074.9825.6523.0202.0063.0384-.0025.0449-.0234a.0383.0383 0 0 0-.0254-.047c-.4357-.136-.7401-.368-.9434-.6288a.1.1 0 0 1-.0117-.0215c-.0037-.0086-.0061-.0087-.0097-.0117a.1.1 0 0 1-.0176-.0196c-.343-.478-.3735-1.031-.3653-1.3086a.1.1 0 0 1 .1329-.0898l.6425.2344a.1.1 0 0 1 .043.0293c.3124.3739.7865.7555 1.5078 1.0879a.037.037 0 0 0 .0488-.0196c.0077-.019.0012-.0381-.0175-.0468-1.0054-.4634-1.5407-1.0308-1.8086-1.5547-.281-.5496-.2626-1.0367-.2305-1.2676l.0156.0215a.1.1 0 0 1 .0938-.1074zm15.3262.002a.1.1 0 0 1 .121.0702.1.1 0 0 1 .002.0137c.0322.2315.0485.7182-.2324 1.2676-.2671.5238-.8005 1.0913-1.8067 1.5547-.0184.0086-.025.028-.0175.0468.0094.0202.0307.0279.0488.0196.721-.3324 1.1946-.714 1.5078-1.088a.1.1 0 0 1 .043-.0292l.6425-.2344a.1.1 0 0 1 .1348.0899c.0084.2777-.0248.8306-.3672 1.3085a.1.1 0 0 1-.0195.0196c-.0047.0036-.0064.006-.0098.0136a.1.1 0 0 1-.0117.0196c-.2038.261-.5068.493-.9434.6289a.0369.0369 0 0 0-.0234.0469.037.037 0 0 0 .0469.0234c.4654-.145.7707-.3836.9785-.6523a.1.1 0 0 1 .0508-.0352l.1347-.041a.1.1 0 0 1 .127.1191c-.068.294-.2583.831-.7734 1.2461-.4882.3936-1.2574.6635-2.4454.545l-.1152-.0118a.1.1 0 0 1-.0117-.002c-.1562-.0328-.2897-.1274-.4082-.2382a.1.1 0 0 1-.0078-.0059l-.2735-.3144a.1.1 0 0 1-.0058-.0078c-.2187-.3-.3532-.5964-.3555-.6016-.006-.0113-.0057-.0135-.0058-.0137a.1.1 0 0 1-.0235-.0566c-.0099-.1388-.0217-.7277.3887-1.4219.4719-.799 1.4918-1.7144 3.6308-2.2793zm.3359 3.7148a.1.1 0 0 1 .1035.084.2947.2947 0 0 1 .004.0488v8.9004a3.7728 3.7728 0 0 1-1.7071 3.1582C20.688 24.2149 18.291 25.83 18.291 25.83a.1.1 0 0 0 0 .002.2849.2849 0 0 1-.289.0116.2808.2808 0 0 1-.1465-.248V23.793c-.874.5324-1.675.6762-2.3242.5996-.6244-.0737-1.0632-.3278-1.3848-.5371v1.7402a.2826.2826 0 0 1-.1485.248.2812.2812 0 0 1-.287-.0117.1.1 0 0 0-.002-.002s-2.395-1.615-4.0996-2.7284a3.7732 3.7732 0 0 1-1.709-3.1582V11.043a.1.1 0 0 1 .0039-.0293l.0078-.0254a.1.1 0 0 1 .1836-.0176c.085.1574.1944.3211.3398.4766a.1.1 0 0 1 .0274.0683v8.4278a3.208 3.208 0 0 0 1.455 2.6855l3.666 2.4434v-6.0684c-1.0854-.043-1.8762-.3704-2.416-.8672-.5582-.5138-.8616-1.1875-1.0214-1.8515-.3196-1.328-.0664-2.6348-.0664-2.6348a.1.1 0 0 0 .002-.002c.0004-.0022.003-.0108.0038-.0156a.296.296 0 0 1 .207-.3203 7.5907 7.5907 0 0 1 2.2012-.3242 7.575 7.575 0 0 1 2.6856.4902c.1534.0578.232.2319.1719.3828l.0078-.037v.0116a.1.1 0 0 0 0 .002l-.0782 4.0234.7676.4864.7676-.4864-.0762-4.0234a.1.1 0 0 0 0-.002.302.302 0 0 1 .004-.0488c-.014-.129.055-.2586.1796-.3086a6.8255 6.8255 0 0 1 2.543-.4902c.7225 0 1.4207.113 2.08.3242.1073.0342.1774.128.1954.2324.0231.0335.0413.0702.0488.1113 0 0 .231 1.3108-.0898 2.6329-.1985.8134-.6075 1.6358-1.3985 2.164-.474.3167-1.1078.503-1.8847.541v6.0782l3.664-2.4434a.1.1 0 0 0 .002 0 3.2089 3.2089 0 0 0 1.455-2.6855v-8.4297a.1.1 0 0 1 .0255-.0684 2.313 2.313 0 0 0 .3457-.4824l.0039.0059a.1.1 0 0 1 .078-.0586zm-2.25 2.6347c-.0062-.0089-.0104-.0192-.0176-.0273l.0254.0625c-.0006-.0122-.0058-.0232-.0078-.0352zm-4.998.2422c.001.0098-.0002.0195.0019.0293v-.041c-.0008.004-.0013.0077-.002.0117zm-6.6583-.1543c.0017.013-.0016.0261.002.039l.002-.0585c-.0037.0106-.003.0136-.004.0195zm2.4082-.0527c-.6455 0-1.2668.0972-1.8613.2617-.0346.1957-.2212 1.298.0762 2.4023.1529.568.4305 1.119.914 1.5293.4835.4104 1.1769.6856 2.1817.6856.0124 0 .017.0027.0254.0039.008-.0016.0168-.004.0351-.004.1544 0 .2813.127.2813.2813v4.4512c.1667.1448.6806.5498 1.4512.6406.616.0728 1.3831-.0665 2.2578-.6953v-4.3965a.2825.2825 0 0 1 .2812-.2812c.0055 0 .0132.0016.0195.002h.004a.169.169 0 0 1 .0234 0c.7825 0 1.367-.185 1.8066-.4786.6565-.4386.9944-1.1275 1.1641-1.8261.2586-1.0624.1173-2.0865.084-2.3106-.5655-.1675-1.1568-.2656-1.7715-.2656-.7596 0-1.4862.1467-2.166.3984l-.0781 3.9922a.201.201 0 0 1-.0977.1738.1.1 0 0 0-.002 0l-.9335.541c-.0398.024-.0825.0027-.125-.0058-.0506.0198-.106.0362-.1563.0058l-.9336-.541a.1.1 0 0 0-.002 0 .201.201 0 0 1-.0956-.1718l-.0762-3.9922c-.7245-.2544-1.4975-.4004-2.3067-.4004zm.3008.7344a2.2586 2.2586 0 0 1 .166.002c.0683-.0036.739-.0146 1.4512.6523a.1.1 0 0 0 .002.0019c.057.0566.0665.1492.0136.2148a.1.1 0 0 0-.002.002.162.162 0 0 1-.2148.0293c-.008-.0055-.0304-.008-.039-.0137.203.1345.4053.2083.5937.463a.1612.1612 0 0 1-.0195.2109c-.0566.0544-.1385.0535-.1992.0136a.1.1 0 0 1-.0157-.0058l-.0097-.0098c-.1415-.1038-.476-.2637-.8438-.371.0044.0316.0196.0587.0196.0917 0 .4092-.3347.7422-.7442.7422-.4087 0-.7422-.3332-.7422-.7422 0-.0094.0036-.018.004-.0273-.2474.0767-.5247.1708-.8204.3593a.162.162 0 0 1-.207-.0273c-.0526-.0588-.052-.1523-.002-.211a.1.1 0 0 0 .002-.0019c.1093-.1217.3344-.3416.6113-.5371-.1429.0783-.227.0738-.3925.1973a.1623.1623 0 0 1-.213-.0157.1614.1614 0 0 1-.0136-.211.1.1 0 0 1 .0058-.0058l.004-.0039.002-.002c.2048-.2412.7458-.7705 1.6034-.7948zm6.1446 0a2.2587 2.2587 0 0 1 .166.002c.0678-.0035.739-.0146 1.4511.6523.0615.0588.0636.1548.0137.2167a.1.1 0 0 0-.002.002c-.051.0604-.1459.075-.2128.0293-.008-.0055-.0305-.008-.039-.0137.203.1345.4053.2083.5937.463a.1612.1612 0 0 1-.0196.2109.1.1 0 0 0-.002.002.1609.1609 0 0 1-.207.0077c-.1355-.1015-.4794-.2712-.8593-.3828.0042.0315.0195.0592.0195.0918 0 .4094-.3354.7422-.7441.7422-.4088 0-.7422-.3332-.7422-.7422 0-.0094.0035-.018.0039-.0273-.2466.0766-.5233.1715-.8184.3593-.0648.0432-.1537.0305-.207-.0293-.0493-.0565-.0555-.1484-.004-.209a.1.1 0 0 0 .002-.0019c.1098-.1218.3375-.3413.6153-.5371-.1438.0786-.2298.073-.3965.1973-.0642.0488-.1542.04-.211-.0157-.057-.057-.0574-.1468-.0136-.207a.1.1 0 0 1 .0039-.0098c.2022-.2393.747-.7763 1.6094-.8007zm-6.1211.4296c-.0615.0016-.1535.0108-.2793.0391-.0822.0184-.205.085-.332.1563.2153-.1026.4526-.1761.7109-.1895-.0074-.0012-.0382-.0074-.0996-.0059zm6.1445 0c-.061.0016-.1516.0108-.2774.0391-.0815.0183-.2035.084-.33.1543.2143-.1013.4502-.1742.707-.1875-.0074-.0012-.0387-.0074-.0996-.0059zm-3.834 4.295a.1.1 0 0 1 .125 0c.0501.0396.104.0761.1602.1093a.6442.6442 0 0 1 .1132.086.1.1 0 0 1 .004.0039.7029.7029 0 0 1 .082.1094c.0356.0567.075.1112.1152.164a.1.1 0 0 1-.002.123.3676.3676 0 0 1-.3183.1387c-.2228-.015-.4-.1933-.416-.416-.0097-.1213.039-.2415.1367-.3183zm1.8828 0a.1.1 0 0 1 .123 0 .3645.3645 0 0 1 .1407.3183.4399.4399 0 0 1-.1309.2871.4509.4509 0 0 1-.287.1309.366.366 0 0 1-.3165-.1426.1.1 0 0 1 0-.121c.04-.0521.0782-.1053.1113-.1602a.1.1 0 0 0 0-.002.6602.6602 0 0 1 .084-.1094.1.1 0 0 1 .004-.0039.5781.5781 0 0 1 .1113-.086 1.7684 1.7684 0 0 0 .1601-.1112zm-.4023 2.0312c.1871.0085.3843.057.537.0723.1042.0105.1398-.0051.131 0a.1.1 0 0 1 .0038 0 .1.1 0 0 1 .168.0586s.0004.0179-.002.0293a.117.117 0 0 1-.0136.0351c-.002.0033-.0056.0047-.0078.0078 0 0-.0086.0097-.0215.0235l-.002.002c-.0008.0008-.005.001-.0058.0019-.0071.0054-.0118.0135-.0195.0176-.006.0032-.0193-.0007-.0254.002-.0673.0657-.174.1679-.3711.1679H15.127c-.2063 0-.2585-.0939-.3223-.1582-.0032-.0008-.0107.0007-.0137 0a.3264.3264 0 0 1-.0664-.0235c-.0163-.0083-.0332-.0214-.0332-.0214l.0078-.0059c-.0009-.0011-.0234-.0117-.0234-.0117a.1.1 0 0 1 .1465-.1348s-.0084-.0052-.0059-.0039a.1676.1676 0 0 0 .0254.0078c.0297.0076.0884.0159.1875.0059.1525-.0153.3519-.0605.5371-.0703.0627-.0032.1241-.0027.1816.0058.1828.0271.2735.0782.3047.0938.0287-.0097.1838-.0655.375-.0938a.9493.9493 0 0 1 .1817-.0078zm-1.1543.5938.211.0605a.2094.2094 0 0 0 .0507.0078l.336.0098.3359-.0098a.1.1 0 0 0 .002 0 .2107.2107 0 0 0 .0507-.0078l.211-.0605a.1.1 0 0 1 .1054.1562l-.0937.1211a.1.1 0 0 0 0 .002c-.0932.1182-.2377.1875-.3926.1875h-.4356c-.1548 0-.2993-.0693-.3925-.1875a.1.1 0 0 0-.002-.002l-.0937-.121a.1.1 0 0 1 .1074-.1563z"
  />
</svg>