<svg
  xmlns="http://www.w3.org/2000/svg"
  xml:space="preserve"
  viewBox="0 0 32 32"
>
  <path
    fill="currentColor"
    d="M16 4C9.3712 4 4 9.3712 4 16c0 6.6264 5.3712 12 12 12 6.6264 0 12-5.3736 12-12 0-6.6288-5.3736-12-12-12zm3.629 3.6914h1.5722v1.6914h-1.5723V7.6914zm-8.5294.2852h1.2383v3.0214h2.8398v1.1465H12.338v3.0215h-1.2383v-3.0215H8.2598V10.998h2.8398V7.9766zm5.8574 3.0058h6.918v1.1485h-6.918v-1.1485zm2.672 2.748h1.5722v1.6934h-1.5723v-1.6933zM8.961 17.2677l2.5976 2.5918 2.5996-2.5918.7988.8008-2.5957 2.5918 2.5957 2.5878-.8613.8614-2.5977-2.5918-2.5957 2.5918-.8027-.7989 2.5996-2.5918-2.5996-2.5898.8613-.8613zm8.0214 1.7226h6.918v1.1485h-6.918v-1.1485zm0 2.6875h6.918v1.1485h-6.918v-1.1485z"
  />
</svg>